<svg viewBox="0 0 120 56" xmlns="http://www.w3.org/2000/svg" role="img" aria-label="Two cars meeting in the middle">
  <line x1="8" y1="44" x2="112" y2="44" stroke="#3a3a47" stroke-width="3" stroke-linecap="round" />
  <line x1="50" y1="44" x2="70" y2="44" stroke="#8b5cf6" stroke-width="3" stroke-linecap="round" opacity="0.55" />
  <g>
    <path d="M60 8 C53 8 48 13 48 19 C48 27 60 39 60 39 C60 39 72 27 72 19 C72 13 67 8 60 8 Z" fill="#8b5cf6" />
    <circle cx="60" cy="19" r="4.5" fill="#ffffff" />
  </g>
  <g fill="#8b5cf6">
    <rect x="6" y="31" width="26" height="10" rx="3" />
    <path d="M11 31 L15 25 L24 25 L28 31 Z" />
    <circle cx="13" cy="41" r="3" fill="#f3f3f7" />
    <circle cx="27" cy="41" r="3" fill="#f3f3f7" />
  </g>
  <g fill="#f3f3f7">
    <rect x="88" y="31" width="26" height="10" rx="3" />
    <path d="M109 31 L105 25 L96 25 L92 31 Z" />
    <circle cx="93" cy="41" r="3" fill="#8b5cf6" />
    <circle cx="107" cy="41" r="3" fill="#8b5cf6" />
  </g>
</svg>
